<?xml version="1.0" encoding="utf-8"?>
<!-- Generator: Adobe Illustrator 16.0.0, SVG Export Plug-In . SVG Version: 6.00 Build 0)  -->
<!DOCTYPE svg PUBLIC "-//W3C//DTD SVG 1.1//EN" "http://www.w3.org/Graphics/SVG/1.1/DTD/svg11.dtd">
<svg version="1.1" id="Capa_1" xmlns="http://www.w3.org/2000/svg" xmlns:xlink="http://www.w3.org/1999/xlink" x="0px" y="0px"
	 width="595.28px" height="564px" viewBox="0 0 595.28 564" enable-background="new 0 0 595.28 564" xml:space="preserve">
<g>
	<path fill-rule="evenodd" clip-rule="evenodd" fill="#FFFFFF" d="M296.894,547.725c-144.269-0.146-268.38-121.49-267.989-267.386
		C29.352,125.645,153.017,9.055,299.09,9.143c145.012,0.109,267.85,123.114,268.395,267.342
		C568.043,424.039,444.492,547.871,296.894,547.725z M295.049,512.971c124.671,2.398,231.587-101.027,238.52-221.575
		c7.746-134.881-106.832-242.703-222.499-248.078C173.818,36.948,69.11,148.156,61.897,264
		C53.789,394.318,163.39,513.454,295.049,512.971z"/>
	<path fill-rule="evenodd" clip-rule="evenodd" fill="#FFFFFF" d="M126.497,269.756c0-32.61,0.77-65.229-0.266-97.795
		c-0.699-22.079,10.527-31.923,38.836-31.754c86.575,0.511,173.152,0.394,259.742,0.05c26.17-0.087,36.794,9.472,36.654,29.832
		c-0.504,68.695-0.504,137.375-0.026,206.064c0.166,20.301-10.25,30.043-36.502,29.955c-86.576-0.351-173.166-0.468-259.742,0.059
		c-28.197,0.175-39.633-9.508-38.961-31.639C127.251,339.614,126.51,304.67,126.497,269.756z M293.273,391.67
		c39.493,0,79.042-1.039,118.45,0.351c25.652,0.922,32.517-7.152,31.943-26.313c-1.355-45.227-1.355-90.519-0.014-135.745
		c0.587-19.643-8.108-26.525-32.811-26.254c-77.504,0.856-155.034,0.752-232.538,0.029c-23.332-0.212-34.837,4.446-34.194,25.193
		c1.439,46.404,1.3,92.852,0.042,139.233c-0.532,18.546,8.164,24.369,30.671,23.783C214.261,390.895,253.781,391.641,293.273,391.67
		z M416.169,190.113c8.303-1.777,25.945,4.557,25.499-8.886c-0.559-16.571-15.882-26.013-37.325-26.233
		c-8.751-0.095-24.102-3.269-21.57,9.214C385.385,177.176,391.16,191.495,416.169,190.113z M270.501,187.188
		c-7.927-19.402-14.623-36.004-44.54-32.26c-12.861,1.603-12.525,7.855-9.632,14.897
		C224.97,190.757,243.576,194.297,270.501,187.188z M353.54,187.429c-7.675-25.721-21.809-40.904-57.875-28.947
		C302.542,182.295,316.326,196.629,353.54,187.429z M185.617,181.015c-8.052-8.41-7.94-23.125-25.428-25.298
		c-14.875-1.857-14.734,7.753-15.672,16.069c-1.481,13.164,4.949,19.958,22.213,18.363
		C174.293,189.454,185.449,193.009,185.617,181.015z"/>
	<path fill-rule="evenodd" clip-rule="evenodd" fill="#FFFFFF" d="M364.033,291.438c0.056,0.398,0.098,0.802,0.124,1.212
		c1.585,24.162-39.77,34.773-55.54,40.59c-17.185,6.338-34.747,16.49-53.105,17.802c-22.999,1.644-25.881-25.134-25.947-43.95
		c-0.063-18.114,1.049-36.697,2.19-54.785c1.453-23.011,16.145-26.121,34.852-18.215c20.931,8.845,40.505,20.857,61.52,29.493
		C341.48,269.072,361.554,273.664,364.033,291.438z"/>
</g>
</svg>
