<?xml version="1.0" encoding="utf-8"?>
<!-- Generator: Adobe Illustrator 16.0.0, SVG Export Plug-In . SVG Version: 6.00 Build 0)  -->
<!DOCTYPE svg PUBLIC "-//W3C//DTD SVG 1.1//EN" "http://www.w3.org/Graphics/SVG/1.1/DTD/svg11.dtd">
<svg version="1.1" id="Capa_1" xmlns="http://www.w3.org/2000/svg" xmlns:xlink="http://www.w3.org/1999/xlink" x="0px" y="0px"
	 width="595.28px" height="564px" viewBox="0 0 595.28 564" enable-background="new 0 0 595.28 564" xml:space="preserve">
<g>
	<path fill-rule="evenodd" clip-rule="evenodd" fill="#FFFFFF" d="M293.987,564c-147.69-2.159-269.188-117.153-269.13-269.015
		C24.916,138.79,150.971,25.909,293.504,25.419c146.357-0.49,270.39,123.725,269.936,268.969
		C562.971,440.873,439.861,564.046,293.987,564z M291.966,529.309c129.438,1.011,234.119-103.752,237.664-232.025
		c3.486-126.191-108.241-233.849-226.97-237.954C168.681,54.688,61.979,168.105,57.203,284.57
		C52.002,412.155,159.877,530.273,291.966,529.309z"/>
	<path fill-rule="evenodd" clip-rule="evenodd" fill="#FFFFFF" d="M134.021,291.677c0-28.136,0.908-56.317-0.381-84.377
		c-0.718-15.883,4.336-24.001,18.896-28.06c42.658-11.946,84.964-14.32,125.308,7.214c12.744,6.816,21.885,6.893,34.483,0.414
		c38.673-19.896,79.221-19.835,120.194-8.194c13.198,3.737,20.698,9.925,20.317,27.109c-1.289,57.191-0.996,114.413-0.176,171.589
		c0.264,16.112-4.644,20.37-19.746,20.585c-44.563,0.612-89.358,2.817-133.672,3.461c-50.465,0.735-101.561-3.646-152.436-3.737
		c-14.225-0.03-12.818-9.373-12.789-18.809C134.021,349.802,134.021,320.747,134.021,291.677z M284.847,383.528
		c0-52.795,0-100.489,0-148.169c0-16.802-8.116-28.688-21.915-35.61c-32.14-16.159-65.393-15.362-99.056-5.545
		c-8.789,2.573-13.771,7.321-13.712,17.583c0.176,55.659,0.074,111.334,0.074,170.822
		C196.133,357.476,238.717,355.653,284.847,383.528z M433.123,380.297c1.758-3.354,3.311-4.87,3.311-6.417
		c0.264-37.541,0.41-75.081,0.454-112.637c0.059-72.399-5.552-77.546-76.131-72.706c-13.799,0.95-26.104,5.759-38.175,11.916
		c-11.411,5.82-19.131,16.358-19.395,28.611c-1.012,50.084-0.426,100.198-0.426,154.372
		C348.394,355.607,391.139,357.46,433.123,380.297z"/>
</g>
</svg>
