<?xml version="1.0" encoding="utf-8"?>
<!-- Generator: Adobe Illustrator 16.0.0, SVG Export Plug-In . SVG Version: 6.00 Build 0)  -->
<!DOCTYPE svg PUBLIC "-//W3C//DTD SVG 1.1//EN" "http://www.w3.org/Graphics/SVG/1.1/DTD/svg11.dtd">
<svg version="1.1" id="Capa_1" xmlns="http://www.w3.org/2000/svg" xmlns:xlink="http://www.w3.org/1999/xlink" x="0px" y="0px"
	 width="595.28px" height="564px" viewBox="0 0 595.28 564" enable-background="new 0 0 595.28 564" xml:space="preserve">
<g>
	<path fill-rule="evenodd" clip-rule="evenodd" fill="#FFFFFF" d="M296.339,547.725c-144.269-0.146-268.38-121.49-267.988-267.386
		C28.797,125.645,152.462,9.055,298.535,9.143c145.012,0.109,267.85,123.114,268.395,267.342
		C567.488,424.039,443.938,547.871,296.339,547.725z M294.494,512.971c124.671,2.398,231.587-101.027,238.521-221.575
		c7.745-134.881-106.833-242.703-222.5-248.078C173.263,36.948,68.557,148.156,61.342,264
		C53.234,394.318,162.835,513.454,294.494,512.971z"/>
	<g>
		<g>
			<path fill-rule="evenodd" clip-rule="evenodd" fill="#FFFFFF" d="M309.001,347.059c10.355-81.333,19.882-156.024,29.41-230.689
				c2.702-0.188,5.377-0.406,8.054-0.582c14.892,53.847,94.243,82.077,54.012,158.106c1.191-32.245-11.894-55.917-38.873-70.85
				c-13.768-7.615-25.17-11.983-27.534,13.365c-4.487,47.828-12.893,95.21-18.216,142.971
				c-3.699,33.233-22.353,51.899-50.702,61.058c-29.813,9.644-57.115,2.367-78.447-21.494c-20.567-22.98-8.351-59.068,23.063-71.607
				C243.301,313.946,273.515,325.227,309.001,347.059z"/>
		</g>
	</g>
</g>
</svg>
