<?xml version="1.0" encoding="utf-8"?>
<!-- Generator: Adobe Illustrator 16.0.0, SVG Export Plug-In . SVG Version: 6.00 Build 0)  -->
<!DOCTYPE svg PUBLIC "-//W3C//DTD SVG 1.1//EN" "http://www.w3.org/Graphics/SVG/1.1/DTD/svg11.dtd">
<svg version="1.1" id="Capa_1" xmlns="http://www.w3.org/2000/svg" xmlns:xlink="http://www.w3.org/1999/xlink" x="0px" y="0px"
	 width="595.28px" height="564px" viewBox="0 0 595.28 564" enable-background="new 0 0 595.28 564" xml:space="preserve">
<g>
	<path fill-rule="evenodd" clip-rule="evenodd" fill="#FFFFFF" d="M298.301,564C151.637,562.376,28.967,448.751,28.352,295.821
		C27.722,140.978,152.34,26.342,296.191,25.423c146.503-0.965,270.682,122.724,270.74,268.102
		C566.99,439.745,443.617,563.984,298.301,564z M296.924,529.337c131.986-0.936,236.506-105.921,235.568-236.655
		C531.599,161.411,425.146,58.769,290.171,59.795C169.186,60.684,55.687,171.582,60.667,304.369
		C65.149,424.596,172.789,530.21,296.924,529.337z"/>
	<path fill-rule="evenodd" clip-rule="evenodd" fill="#FFFFFF" d="M257.196,199.215c46.173,0,92.347,0.888,138.461-0.337
		c26.778-0.705,36.637,12.697,36.563,38.416c-0.073,48.587-0.234,97.189,0.088,145.775c0.205,27.434-11.514,41.373-38.38,41.266
		c-64.88-0.245-129.76-0.245-194.625-0.016c-25.006,0.107-37.97-12.023-38.028-38.431c-0.029-50.609-0.059-101.233,0.059-151.857
		c0.059-17.937,7.222-29.608,24.375-36.563c48.488-19.637,96.375-40.866,144.497-61.438c8.921-3.814,18.634-9.865,23.204,5.468
		c4.482,15.058-9.303,12.469-15.396,15.317c-27.057,12.561-54.625,23.804-81.989,35.537
		C256.405,194.649,256.801,196.933,257.196,199.215z M296.719,223.906c-30.851,0-61.701,0.275-92.552-0.092
		c-23.878-0.276-15.498,18.534-15.527,30.298c0,11.779-8.263,30.42,15.615,30.236c44.327-0.367,88.685-0.214,133.012-0.03
		c8.966,0.03,14.897-2.145,14.591-13.265c-0.205-7.904-1.07-16.268,10.898-16.758c13.418-0.551,12.422,8.639,13.33,17.814
		c1.509,15.363,14.84,15.271,21.563,10.753c15.704-10.554,5.42-28.996,7.441-43.915c1.641-11.963-5.391-15.287-15.864-15.164
		C358.391,224.121,327.569,223.906,296.719,223.906z M227.811,396.212c24.42,0.644,42.833-17.982,42.628-43.104
		c-0.176-22.302-19.073-43.088-39.962-43.991c-22.164-0.95-42.071,19.959-42.145,44.237
		C188.244,377.647,204.812,395.63,227.811,396.212z"/>
</g>
</svg>
