<?xml version="1.0" encoding="utf-8"?>
<!-- Generator: Adobe Illustrator 16.0.0, SVG Export Plug-In . SVG Version: 6.00 Build 0)  -->
<!DOCTYPE svg PUBLIC "-//W3C//DTD SVG 1.1//EN" "http://www.w3.org/Graphics/SVG/1.1/DTD/svg11.dtd">
<svg version="1.1" id="Capa_1" xmlns="http://www.w3.org/2000/svg" xmlns:xlink="http://www.w3.org/1999/xlink" x="0px" y="0px"
	 width="595.28px" height="564px" viewBox="0 0 595.28 564" enable-background="new 0 0 595.28 564" xml:space="preserve">
<g>
	<path fill-rule="evenodd" clip-rule="evenodd" fill="#FFFFFF" d="M296.942,551.291C182.917,551.177,76.885,472.905,41.313,362.55
		C5.103,250.152,50.196,123.826,149.831,58.571c116.178-76.088,260.034-56.035,352.997,49.241
		c107.47,121.73,76.898,321.489-61.477,401.588C390.851,538.616,347.065,551.333,296.942,551.291z M297.917,516.522
		c131.921-0.414,237.021-104.033,237.036-233.686c0-132.421-106.147-236.24-241.369-235.627
		C171.258,47.796,58.017,155.24,61.069,287.104C64.005,411.147,170.894,516.908,297.917,516.522z"/>
	<path fill-rule="evenodd" clip-rule="evenodd" fill="#FFFFFF" d="M262.621,189.822c-14.318-13.231-28.695-26.348-42.811-39.792
		c-5.757-5.466-11.804-11.133-2.937-19.738c7.53-7.251,13.287-5.11,19.625,1.655c16.122,17.27,33.463,33.439,48.582,51.651
		c16.18,19.482,29.335,17.855,44.613-0.856c11.834-14.529,25.891-27.031,38.349-41.032c6.963-7.808,12.109-11.019,20.89-1.713
		c9.332,9.834,1.075,14.001-3.766,18.981c-10.801,11.176-22.197,21.723-37.446,36.495c24.059,3.697,41.604,9.277,58.814,8.307
		c21.196-1.156,25.803,11.29,28.508,28.046c8.475,52.096,8.111,104.177,0.059,156.357c-3.082,20.138-13.418,27.831-32.505,29.629
		c-69.879,6.594-139.553,6.408-209.445-0.028c-19.218-1.756-29.365-9.862-32.301-29.857c-7.821-53.194-8.955-106.274,0.916-159.312
		c2.718-14.658,6.439-24.307,25.018-24.849c23.535-0.686,47.055-6.438,71.085-4.696
		C259.438,195.987,261.007,192.919,262.621,189.822z M299.574,235.438c0,0.071,0,0.128,0,0.229c-25.934,0-51.839-0.029-77.758,0
		c-16.179,0-25.483,4.995-28.725,25.191c-5.378,33.44-5.698,65.768,0.393,99.052c2.66,14.458,6.934,19.754,21.151,22.108
		c35.382,5.881,70.794,5.253,106.293,5.024c82.685-0.514,97.019-18.212,85.897-105.189c-5.858-45.673-5.858-45.772-49.672-46.372
		C337.965,235.237,318.776,235.438,299.574,235.438z"/>
</g>
</svg>
